<?xml version="1.0" standalone="yes"?>
<svg xmlns="http://www.w3.org/2000/svg" width="389" height="385">
<path style="fill:#fdfeff; stroke:none;" d="M0 0L0 385L389 385L389 0L0 0z"/>
<path style="fill:#bd9f7c; stroke:none;" d="M214.667 26.3333L215.333 26.6667L214.667 26.3333z"/>
<path style="fill:#466287; stroke:none;" d="M216 26L216 27L219 27L216 26z"/>
<path style="fill:#060504; stroke:none;" d="M210 27L207 93L207.029 114.258L227 119L226.961 90L227.604 78.6034L243 76L246 115L266 114C259.6 87.1328 258.585 53.9335 265 27L249 27L250 59L225 58L223 26L210 27z"/>
<path style="fill:#466287; stroke:none;" d="M223 26L223 29L224 29L223 26z"/>
<path style="fill:#bd9f7c; stroke:none;" d="M249 26L249 27L265 27L249 26M151.667 27.3333L152.333 27.6667L151.667 27.3333z"/>
<path style="fill:#466287; stroke:none;" d="M153 27L153 28L156 28L153 27z"/>
<path style="fill:#060504; stroke:none;" d="M157 65L156 73L173 77L173 78L153 80L155 88L178 86C173.774 99.337 164.047 120.346 148.105 103.945C146.126 101.909 144.595 99.6019 143.468 97C135.891 79.5088 145.586 52.8341 162 43.5332C170.02 38.9888 175.88 43.4784 184 44C177.892 18.3104 140.177 25.7525 129.468 43C111.869 71.343 132.55 129.86 173 113.518C184.463 108.886 189.218 97.1382 191.87 86C192.682 82.5888 194.3 76.7088 191.972 73.564C190.151 71.1031 185.728 70.9677 183 70.2685C174.636 68.1253 165.65 65.1843 157 65z"/>
<path style="fill:#466287; stroke:none;" d="M162.667 27.3333L163.333 27.6667L162.667 27.3333z"/>
<path style="fill:#bd9f7c; stroke:none;" d="M164.667 27.3333L165.333 27.6667L164.667 27.3333M209 27L209 35L210 35L209 27M147 28L148 29L147 28z"/>
<path style="fill:#466287; stroke:none;" d="M148 28L149 29L148 28M167.667 28.3333L168.333 28.6667L167.667 28.3333M264.333 28.6667L264.667 29.3333L264.333 28.6667z"/>
<path style="fill:#bd9f7c; stroke:none;" d="M171 29L172 30L171 29M142 30L143 31L142 30z"/>
<path style="fill:#466287; stroke:none;" d="M143 30L144 31L143 30M172 30L173 31L172 30z"/>
<path style="fill:#bd9f7c; stroke:none;" d="M173 30L174 31L173 30z"/>
<path style="fill:#139eef; stroke:none;" d="M264.333 30.6667L264.667 31.3333L264.333 30.6667z"/>
<path style="fill:#466287; stroke:none;" d="M141 31L142 32L141 31M174 31L175 32L174 31M139 32L140 33L139 32z"/>
<path style="fill:#bd9f7c; stroke:none;" d="M264.333 32.6667L264.667 33.3333L264.333 32.6667z"/>
<path style="fill:#466287; stroke:none;" d="M138 33L139 34L138 33z"/>
<path style="fill:#bd9f7c; stroke:none;" d="M177 33L178 34L177 33M136 34L137 35L136 34M178 34L179 35L178 34M224 34L224 39L225 39L224 34M135 35L136 36L135 35M179 35L180 36L179 35z"/>
<path style="fill:#466287; stroke:none;" d="M209 35L209 41L210 41L209 35M249 35L249 42L250 42L249 35z"/>
<path style="fill:#bd9f7c; stroke:none;" d="M134 36L135 37L134 36z"/>
<path style="fill:#466287; stroke:none;" d="M180 36L181 37L180 36z"/>
<path style="fill:#bd9f7c; stroke:none;" d="M133 37L134 38L133 37M181 37L182 38L181 37z"/>
<path style="fill:#466287; stroke:none;" d="M263 37L263 42L264 42L263 37z"/>
<path style="fill:#bd9f7c; stroke:none;" d="M148 38L147 40L148 38z"/>
<path style="fill:#fdfeff; stroke:none;" d="M149 38C147.23 41.4887 146.981 43.6618 151 45L149 38z"/>
<path style="fill:#466287; stroke:none;" d="M150 38L151 39L150 38M182 39L183 40L182 39M224 39L224 46L225 46L224 39M233 39L234 40L233 39z"/>
<path style="fill:#060504; stroke:none;" d="M234.109 39.7462C226.057 43.0831 232.117 54.4098 239.941 51.2538C248.135 47.949 241.969 36.4887 234.109 39.7462z"/>
<path style="fill:#466287; stroke:none;" d="M240 39L241 40L240 39z"/>
<path style="fill:#bd9f7c; stroke:none;" d="M241 39L242 40L241 39z"/>
<path style="fill:#466287; stroke:none;" d="M146 40L146 43L147 43L146 40z"/>
<path style="fill:#bd9f7c; stroke:none;" d="M151 40L152 41L151 40z"/>
<path style="fill:#139eef; stroke:none;" d="M183 40L184 41L183 40z"/>
<path style="fill:#bd9f7c; stroke:none;" d="M231 40L232 41L231 40M242 40L243 41L242 40z"/>
<path style="fill:#466287; stroke:none;" d="M130 41L131 42L130 41M166.667 41.3333L167.333 41.6667L166.667 41.3333z"/>
<path style="fill:#bd9f7c; stroke:none;" d="M168 41L169 42L168 41M173 41L174 42L173 41z"/>
<path style="fill:#466287; stroke:none;" d="M174 41L175 42L174 41z"/>
<path style="fill:#bd9f7c; stroke:none;" d="M230 41L231 42L230 41M243 41L244 42L243 41M129 42L130 43L129 42z"/>
<path style="fill:#466287; stroke:none;" d="M163 42L164 43L163 42z"/>
<path style="fill:#bd9f7c; stroke:none;" d="M164 42L165 43L164 42M176 42L177 43L176 42z"/>
<path style="fill:#466287; stroke:none;" d="M177 42L178 43L177 42M184.333 42.6667L184.667 43.3333L184.333 42.6667M230 42L231 43L230 42z"/>
<path style="fill:#bd9f7c; stroke:none;" d="M249 42L249 56L250 56L249 42M263 42L263 45L264 45L263 42M151 43L152 44L151 43z"/>
<path style="fill:#466287; stroke:none;" d="M161 43L162 44L161 43z"/>
<path style="fill:#bd9f7c; stroke:none;" d="M162 43L163 44L162 43z"/>
<path style="fill:#466287; stroke:none;" d="M178 43L179 44L178 43z"/>
<path style="fill:#bd9f7c; stroke:none;" d="M229 43L229 48L230 48L229 43M244 43L245 44L244 43z"/>
<path style="fill:#466287; stroke:none;" d="M128 44L129 45L128 44z"/>
<path style="fill:#bd9f7c; stroke:none;" d="M160 44L161 45L160 44M179 44L179 45L183 45L179 44z"/>
<path style="fill:#466287; stroke:none;" d="M244 44L244 48L245 48L244 44z"/>
<path style="fill:#bd9f7c; stroke:none;" d="M127 45L128 46L127 45z"/>
<path style="fill:#466287; stroke:none;" d="M137 45L138 46L137 45z"/>
<path style="fill:#fdfeff; stroke:none;" d="M138 45C130.717 55.447 147.476 52.9249 138 45z"/>
<path style="fill:#bd9f7c; stroke:none;" d="M139 45L140 46L139 45z"/>
<path style="fill:#466287; stroke:none;" d="M158 45L159 46L158 45M127 46L128 47L127 46z"/>
<path style="fill:#bd9f7c; stroke:none;" d="M136 46L137 47L136 46M140 46L141 47L140 46M157 46L158 47L157 46z"/>
<path style="fill:#466287; stroke:none;" d="M135 47L136 48L135 47z"/>
<path style="fill:#bd9f7c; stroke:none;" d="M141 47L142 48L141 47M156 47L157 48L156 47z"/>
<path style="fill:#466287; stroke:none;" d="M126 48L127 49L126 48z"/>
<path style="fill:#bd9f7c; stroke:none;" d="M155 48L156 49L155 48M208 48L208 57L209 57L208 48z"/>
<path style="fill:#466287; stroke:none;" d="M230 48L231 49L230 48z"/>
<path style="fill:#bd9f7c; stroke:none;" d="M125 49L126 50L125 49z"/>
<path style="fill:#466287; stroke:none;" d="M142 49L143 50L142 49z"/>
<path style="fill:#bd9f7c; stroke:none;" d="M154 49L155 50L154 49M230 49L231 50L230 49z"/>
<path style="fill:#466287; stroke:none;" d="M243 49L244 50L243 49M262 49L262 52L263 52L262 49M125 50L126 51L125 50z"/>
<path style="fill:#139eef; stroke:none;" d="M153 50L154 51L153 50z"/>
<path style="fill:#bd9f7c; stroke:none;" d="M225 50L225 55L226 55L225 50M231 50L232 51L231 50z"/>
<path style="fill:#466287; stroke:none;" d="M242 50L243 51L242 50z"/>
<path style="fill:#bd9f7c; stroke:none;" d="M135 51L136 52L135 51z"/>
<path style="fill:#466287; stroke:none;" d="M152 51L153 52L152 51M233 51L234 52L233 51M240 51L241 52L240 51z"/>
<path style="fill:#bd9f7c; stroke:none;" d="M241 51L242 52L241 51M124 52L125 53L124 52z"/>
<path style="fill:#466287; stroke:none;" d="M141 52L142 53L141 52z"/>
<path style="fill:#bd9f7c; stroke:none;" d="M235 52L235 53L239 53L235 52z"/>
<path style="fill:#139eef; stroke:none;" d="M262 52L263 53L262 52z"/>
<path style="fill:#466287; stroke:none;" d="M124 53L125 54L124 53z"/>
<path style="fill:#bd9f7c; stroke:none;" d="M137 53L138 54L137 53z"/>
<path style="fill:#466287; stroke:none;" d="M140 53L141 54L140 53z"/>
<path style="fill:#bd9f7c; stroke:none;" d="M262 53L263 54L262 53z"/>
<path style="fill:#139eef; stroke:none;" d="M150 54L151 55L150 54z"/>
<path style="fill:#466287; stroke:none;" d="M149 55L150 56L149 55z"/>
<path style="fill:#139eef; stroke:none;" d="M225 55L226 56L225 55z"/>
<path style="fill:#bd9f7c; stroke:none;" d="M123 56L124 57L123 56M149 56L150 57L149 56z"/>
<path style="fill:#466287; stroke:none;" d="M225.333 56.6667L225.667 57.3333L225.333 56.6667M123 57L124 58L123 57M148 57L149 58L148 57M208 57L208 60L209 60L208 57z"/>
<path style="fill:#bd9f7c; stroke:none;" d="M226 57L226 58L232 58L226 57M234 57L235 58L234 57M133 58L134 59L133 58z"/>
<path style="fill:#466287; stroke:none;" d="M134 58L135 59L134 58M238 58L238 59L248 59L238 58z"/>
<path style="fill:#bd9f7c; stroke:none;" d="M248.667 58.3333L249.333 58.6667L248.667 58.3333z"/>
<path style="fill:#fdfeff; stroke:none;" d="M132 59L135 65C135.784 61.57 135.422 60.1357 132 59z"/>
<path style="fill:#bd9f7c; stroke:none;" d="M135 59L136 60L135 59z"/>
<path style="fill:#139eef; stroke:none;" d="M147 59L148 60L147 59z"/>
<path style="fill:#bd9f7c; stroke:none;" d="M122 60L122 63L123 63L122 60M131 60L132 61L131 60z"/>
<path style="fill:#466287; stroke:none;" d="M261 60L261 63L262 63L261 60M136.333 61.6667L136.667 62.3333L136.333 61.6667M146 61L147 62L146 61M226.667 62.3333L227.333 62.6667L226.667 62.3333M122 63L122 67L123 67L122 63M131 63L132 64L131 63M145 63L146 64L145 63z"/>
<path style="fill:#fdfeff; stroke:none;" d="M226 63L226 70L250 67L250 65L226 63z"/>
<path style="fill:#bd9f7c; stroke:none;" d="M235.667 63.3333L236.333 63.6667L235.667 63.3333z"/>
<path style="fill:#466287; stroke:none;" d="M237 63L237 64L243 64L237 63z"/>
<path style="fill:#bd9f7c; stroke:none;" d="M261 63L261 66L262 66L261 63M132 64L133 65L132 64z"/>
<path style="fill:#466287; stroke:none;" d="M135 64L136 65L135 64z"/>
<path style="fill:#bd9f7c; stroke:none;" d="M156.333 64.6667L156.667 65.3333L156.333 64.6667z"/>
<path style="fill:#466287; stroke:none;" d="M157.667 64.3333L158.333 64.6667L157.667 64.3333z"/>
<path style="fill:#bd9f7c; stroke:none;" d="M159.667 64.3333L160.333 64.6667L159.667 64.3333M246 64L246 65L250 65L246 64z"/>
<path style="fill:#466287; stroke:none;" d="M163 65L164 66L163 65M250 65L251 66L250 65z"/>
<path style="fill:#bd9f7c; stroke:none;" d="M144 66L145 67L144 66z"/>
<path style="fill:#466287; stroke:none;" d="M156 66L156 70L157 70L156 66M166.667 66.3333L167.333 66.6667L166.667 66.3333z"/>
<path style="fill:#bd9f7c; stroke:none;" d="M168 66L169 67L168 66M250 66L251 67L250 66z"/>
<path style="fill:#466287; stroke:none;" d="M171 67L172 68L171 67z"/>
<path style="fill:#bd9f7c; stroke:none;" d="M172 67L173 68L172 67M246 67L247 68L246 67z"/>
<path style="fill:#466287; stroke:none;" d="M247 67L247 68L250 68L247 67M143 68L144 69L143 68M175 68L176 69L175 68z"/>
<path style="fill:#bd9f7c; stroke:none;" d="M176.667 68.3333L177.333 68.6667L176.667 68.3333M238 68L238 69L241 69L238 68z"/>
<path style="fill:#466287; stroke:none;" d="M241 68L242 69L241 68z"/>
<path style="fill:#bd9f7c; stroke:none;" d="M143 69L144 70L143 69z"/>
<path style="fill:#466287; stroke:none;" d="M180 69L181 70L180 69z"/>
<path style="fill:#bd9f7c; stroke:none;" d="M181 69L182 70L181 69M229 69L229 70L232 70L229 69z"/>
<path style="fill:#466287; stroke:none;" d="M232.667 69.3333L233.333 69.6667L232.667 69.3333M183.667 70.3333L184.333 70.6667L183.667 70.3333z"/>
<path style="fill:#bd9f7c; stroke:none;" d="M185 70L186 71L185 70z"/>
<path style="fill:#466287; stroke:none;" d="M226.667 70.3333L227.333 70.6667L226.667 70.3333M188.667 71.3333L189.333 71.6667L188.667 71.3333M122 72L122 76L123 76L122 72M142 72L143 73L142 72M192 72L193 77L194 77L192 72z"/>
<path style="fill:#bd9f7c; stroke:none;" d="M193 72L194 73L193 72z"/>
<path style="fill:#139eef; stroke:none;" d="M142 73L143 74L142 73z"/>
<path style="fill:#bd9f7c; stroke:none;" d="M156 73L157 74L156 73z"/>
<path style="fill:#466287; stroke:none;" d="M157.667 73.3333L158.333 73.6667L157.667 73.3333z"/>
<path style="fill:#bd9f7c; stroke:none;" d="M207 73L207 79L208 79L207 73M160 74L161 75L160 74z"/>
<path style="fill:#466287; stroke:none;" d="M161 74L162 75L161 74z"/>
<path style="fill:#bd9f7c; stroke:none;" d="M261.333 74.6667L261.667 75.3333L261.333 74.6667M164 75L165 76L164 75z"/>
<path style="fill:#466287; stroke:none;" d="M165 75L166 76L165 75z"/>
<path style="fill:#bd9f7c; stroke:none;" d="M122 76L122 79L123 79L122 76z"/>
<path style="fill:#466287; stroke:none;" d="M141 76L141 79L142 79L141 76z"/>
<path style="fill:#bd9f7c; stroke:none;" d="M168 76L169 77L168 76z"/>
<path style="fill:#466287; stroke:none;" d="M169 76L170 77L169 76M235 76L235 77L238 77L235 76z"/>
<path style="fill:#bd9f7c; stroke:none;" d="M238 76L238 77L243 77L238 76z"/>
<path style="fill:#466287; stroke:none;" d="M261.333 76.6667L261.667 77.3333L261.333 76.6667z"/>
<path style="fill:#bd9f7c; stroke:none;" d="M172 77L173 78L172 77M193.333 77.6667L193.667 78.3333L193.333 77.6667z"/>
<path style="fill:#466287; stroke:none;" d="M227.667 77.3333L228.333 77.6667L227.667 77.3333z"/>
<path style="fill:#bd9f7c; stroke:none;" d="M229.667 77.3333L230.333 77.6667L229.667 77.3333M163 78L163 79L166 79L163 78z"/>
<path style="fill:#466287; stroke:none;" d="M166 78L166 79L169 79L166 78M226 78L226 86L227 86L226 78z"/>
<path style="fill:#139eef; stroke:none;" d="M141 79L142 80L141 79z"/>
<path style="fill:#bd9f7c; stroke:none;" d="M154 79L154 80L157 80L154 79z"/>
<path style="fill:#466287; stroke:none;" d="M157 79L157 80L161 80L157 79M207 79L207 85L208 85L207 79M123 80L124 81L123 80z"/>
<path style="fill:#bd9f7c; stroke:none;" d="M141 80L141 89L142 89L141 80M152 80L153 81L152 80M123.333 81.6667L123.667 82.3333L123.333 81.6667z"/>
<path style="fill:#466287; stroke:none;" d="M243 81L243 85L244 85L243 81M153.333 82.6667L153.667 83.3333L153.333 82.6667z"/>
<path style="fill:#139eef; stroke:none;" d="M262.333 82.6667L262.667 83.3333L262.333 82.6667z"/>
<path style="fill:#466287; stroke:none;" d="M192 83L193 84L192 83z"/>
<path style="fill:#bd9f7c; stroke:none;" d="M153 84L154 85L153 84z"/>
<path style="fill:#139eef; stroke:none;" d="M192 84L193 85L192 84z"/>
<path style="fill:#466287; stroke:none;" d="M262.333 84.6667L262.667 85.3333L262.333 84.6667z"/>
<path style="fill:#bd9f7c; stroke:none;" d="M124 85L125 86L124 85M192 85L193 86L192 85M243 85L243 89L244 89L243 85z"/>
<path style="fill:#466287; stroke:none;" d="M169.667 86.3333L170.333 86.6667L169.667 86.3333z"/>
<path style="fill:#bd9f7c; stroke:none;" d="M171.667 86.3333L172.333 86.6667L171.667 86.3333z"/>
<path style="fill:#466287; stroke:none;" d="M177 86L178 87L177 86M125 87L126 88L125 87M154 87L155 88L154 87M157 87L157 88L160 88L157 87z"/>
<path style="fill:#bd9f7c; stroke:none;" d="M160 87L160 88L163 88L160 87z"/>
<path style="fill:#466287; stroke:none;" d="M191.333 87.6667L191.667 88.3333L191.333 87.6667z"/>
<path style="fill:#bd9f7c; stroke:none;" d="M125 88L126 89L125 88z"/>
<path style="fill:#139eef; stroke:none;" d="M141 89L142 90L141 89z"/>
<path style="fill:#bd9f7c; stroke:none;" d="M176 89L176 92L177 92L176 89M191 89L192 90L191 89M263 89L263 92L264 92L263 89M126 90L127 91L126 90z"/>
<path style="fill:#466287; stroke:none;" d="M141.333 90.6667L141.667 91.3333L141.333 90.6667z"/>
<path style="fill:#bd9f7c; stroke:none;" d="M206 90L206 102L207 102L206 90z"/>
<path style="fill:#466287; stroke:none;" d="M190.333 91.6667L190.667 92.3333L190.333 91.6667M127 92L128 93L127 92M176 92L177 93L176 92M263 92L263 96L264 96L263 92z"/>
<path style="fill:#bd9f7c; stroke:none;" d="M227 93L227 103L228 103L227 93z"/>
<path style="fill:#466287; stroke:none;" d="M128 94L129 95L128 94z"/>
<path style="fill:#139eef; stroke:none;" d="M142 94L143 95L142 94z"/>
<path style="fill:#bd9f7c; stroke:none;" d="M175 94L176 95L175 94z"/>
<path style="fill:#466287; stroke:none;" d="M175 95L176 96L175 95z"/>
<path style="fill:#bd9f7c; stroke:none;" d="M189 95L190 96L189 95M129 96L130 97L129 96M143 96L144 97L143 96z"/>
<path style="fill:#466287; stroke:none;" d="M130 97L131 98L130 97M143 97L144 98L143 97z"/>
<path style="fill:#bd9f7c; stroke:none;" d="M174 97L175 98L174 97z"/>
<path style="fill:#466287; stroke:none;" d="M188 97L189 98L188 97M244.333 97.6667L244.667 98.3333L244.333 97.6667M174 98L175 99L174 98z"/>
<path style="fill:#bd9f7c; stroke:none;" d="M131 99L132 100L131 99z"/>
<path style="fill:#466287; stroke:none;" d="M144 99L145 100L144 99z"/>
<path style="fill:#bd9f7c; stroke:none;" d="M173 99L174 100L173 99z"/>
<path style="fill:#466287; stroke:none;" d="M187 99L188 100L187 99z"/>
<path style="fill:#bd9f7c; stroke:none;" d="M244 99L244 106L245 106L244 99M264.333 99.6667L264.667 100.333L264.333 99.6667z"/>
<path style="fill:#466287; stroke:none;" d="M132 100L133 101L132 100M173 100L174 101L173 100M145 101L146 102L145 101M186 101L187 102L186 101z"/>
<path style="fill:#139eef; stroke:none;" d="M264 101L265 102L264 101z"/>
<path style="fill:#466287; stroke:none;" d="M146 102L147 103L146 102M185 102L186 103L185 102M206 102L206 108L207 108L206 102M264.333 102.667L264.667 103.333L264.333 102.667z"/>
<path style="fill:#bd9f7c; stroke:none;" d="M134 103L135 104L134 103M147 103L148 104L147 103M171 103L172 104L171 103M185 103L186 104L185 103z"/>
<path style="fill:#466287; stroke:none;" d="M227 103L227 114L228 114L227 103z"/>
<path style="fill:#bd9f7c; stroke:none;" d="M135 104L136 105L135 104M170 104L171 105L170 104z"/>
<path style="fill:#139eef; stroke:none;" d="M184 104L185 105L184 104z"/>
<path style="fill:#bd9f7c; stroke:none;" d="M136 105L137 106L136 105M149 105L150 106L149 105z"/>
<path style="fill:#466287; stroke:none;" d="M183 105L184 106L183 105z"/>
<path style="fill:#bd9f7c; stroke:none;" d="M137 106L138 107L137 106z"/>
<path style="fill:#466287; stroke:none;" d="M150 106L151 107L150 106M182 106L183 107L182 106M151 107L152 108L151 107z"/>
<path style="fill:#bd9f7c; stroke:none;" d="M167 107L168 108L167 107z"/>
<path style="fill:#466287; stroke:none;" d="M140 108L141 109L140 108M166 108L167 109L166 108z"/>
<path style="fill:#bd9f7c; stroke:none;" d="M265.333 108.667L265.667 109.333L265.333 108.667M141 109L142 110L141 109z"/>
<path style="fill:#466287; stroke:none;" d="M156 109L157 110L156 109z"/>
<path style="fill:#bd9f7c; stroke:none;" d="M157.667 109.333L158.333 109.667L157.667 109.333M162.667 109.333L163.333 109.667L162.667 109.333z"/>
<path style="fill:#466287; stroke:none;" d="M164 109L165 110L164 109M179 109L180 110L179 109M245 109L245 114L246 114L245 109z"/>
<path style="fill:#bd9f7c; stroke:none;" d="M142 110L143 111L142 110z"/>
<path style="fill:#466287; stroke:none;" d="M178 110L179 111L178 110M265 110L265 113L266 113L265 110z"/>
<path style="fill:#bd9f7c; stroke:none;" d="M144 111L145 112L144 111M177 111L178 112L177 111M146 112L147 113L146 112z"/>
<path style="fill:#466287; stroke:none;" d="M147 112L148 113L147 112z"/>
<path style="fill:#bd9f7c; stroke:none;" d="M175 112L176 113L175 112M148 113L149 114L148 113z"/>
<path style="fill:#466287; stroke:none;" d="M149 113L150 114L149 113z"/>
<path style="fill:#bd9f7c; stroke:none;" d="M173 113L174 114L173 113M151.667 114.333L152.333 114.667L151.667 114.333z"/>
<path style="fill:#466287; stroke:none;" d="M153 114L154 115L153 114z"/>
<path style="fill:#bd9f7c; stroke:none;" d="M170.667 114.333L171.333 114.667L170.667 114.333M205 114L206 115L205 114M245.333 114.667L245.667 115.333L245.333 114.667z"/>
<path style="fill:#466287; stroke:none;" d="M260.667 114.333L261.333 114.667L260.667 114.333z"/>
<path style="fill:#bd9f7c; stroke:none;" d="M262 114L262 115L266 115L262 114M156.667 115.333L157.333 115.667L156.667 115.333z"/>
<path style="fill:#466287; stroke:none;" d="M158 115L158 116L165 116L158 115z"/>
<path style="fill:#bd9f7c; stroke:none;" d="M165.667 115.333L166.333 115.667L165.667 115.333z"/>
<path style="fill:#466287; stroke:none;" d="M206.667 115.333L207.333 115.667L206.667 115.333M227 115L228 116L227 115M246 115L246 116L251 116L246 115z"/>
<path style="fill:#bd9f7c; stroke:none;" d="M251 115L251 116L254 116L251 115M210.667 116.333L211.333 116.667L210.667 116.333z"/>
<path style="fill:#466287; stroke:none;" d="M212.667 116.333L213.333 116.667L212.667 116.333z"/>
<path style="fill:#bd9f7c; stroke:none;" d="M217 117L218 118L217 117z"/>
<path style="fill:#466287; stroke:none;" d="M218 117L219 118L218 117z"/>
<path style="fill:#bd9f7c; stroke:none;" d="M221 118L221 119L224 119L221 118z"/>
<path style="fill:#466287; stroke:none;" d="M224.667 118.333L225.333 118.667L224.667 118.333M227 118L228 119L227 118z"/>
<path style="fill:#bd9f7c; stroke:none;" d="M248.667 146.333L249.333 146.667L248.667 146.333z"/>
<path style="fill:#139eef; stroke:none;" d="M246 147L247 154L229 156C232.23 164.68 231.385 169.637 221 168L219 173C228.618 178.799 222.289 192.164 213 194L214 199L221 198L225 216L219 219L219 220C222.184 221.67 224.041 222.199 227 220L228 220C231.599 225.14 234.51 227.493 233 234L239 236L241 231C246.294 232.684 247.254 234.56 247 240L253 241L254 234L275 236L272 229L279 222C282.792 223.796 285.287 224.247 287 220L282 218L283 209L288 209L288 205C283.483 204.263 280.832 196.69 276.288 198.762C273.061 200.232 273.06 205.288 271.272 207.985C266.851 214.655 258.393 217.538 251 214.517C229.372 205.679 230.183 168.091 254 162.533C266.819 159.542 271.26 174.968 283 172C281.826 167.889 281.841 166.008 285 163C283.108 157.872 275.849 157.151 271 155L273 147L267 146C264.402 152.351 259.803 150.634 254 152L253 146L246 147z"/>
<path style="fill:#bd9f7c; stroke:none;" d="M270 146L271 147L270 146M147.667 147.333L148.333 147.667L147.667 147.333z"/>
<path style="fill:#139eef; stroke:none;" d="M143 148C143 161.973 143.957 176.072 144.91 190C145.608 200.185 145.999 210.797 146 221C146 225.346 144.983 231.704 147.434 235.567C149.901 239.456 157.029 238.797 161 239.285C175.44 241.058 194.363 238.495 201.622 224C206.782 213.696 204.361 198.912 197.471 190.001C194.575 186.256 189.366 183.934 186.928 180.076C184.142 175.667 188.229 167.365 185.91 162C178.919 145.824 157.188 147.391 143 148z"/>
<path style="fill:#bd9f7c; stroke:none;" d="M157.667 147.333L158.333 147.667L157.667 147.333M245 147L246 148L245 147M266 147L267 148L266 147M93 148L94 149L93 148z"/>
<path style="fill:#139eef; stroke:none;" d="M131 236L104 148C99.3184 148.001 91.6511 147.155 87.6373 150.024C83.035 153.314 80.1887 162.938 78 168C72.4406 180.858 65.7657 193.265 59.9198 206C57.4579 211.363 46.9185 226.175 51.4113 231.482C54.1963 234.772 65.1701 243.616 69.7253 242.263C78.2318 239.736 73.8275 220.922 83.108 218.318C88.4838 216.809 109.239 216.798 113.487 220.603C117.652 224.335 115.85 235.169 121.419 237.303C124.107 238.333 128.247 236.405 131 236z"/>
<path style="fill:#bd9f7c; stroke:none;" d="M272 149L273 150L272 149M86 150L87 151L86 150M104 150L105 151L104 150M172 150L173 151L172 150M246 151L247 152L246 151M255 151L256 152L255 151M262.667 151.333L263.333 151.667L262.667 151.333M85 152L86 153L85 152M84 154L85 155L84 154M164.333 154.667L164.667 155.333L164.333 154.667z"/>
<path style="fill:#fdfeff; stroke:none;" d="M165 154L161 189C172.964 185.454 175.808 160.608 165 154z"/>
<path style="fill:#bd9f7c; stroke:none;" d="M234 154L235 155L234 154M244 154L245 155L244 154M271 154L272 155L271 154M168 155L169 156L168 155M83 156L84 157L83 156M82 158L83 159L82 158M169 158L169 161L170 161L169 158M184 159L185 160L184 159M230 159L231 160L230 159M81 160L82 161L81 160M143 161L143 168L144 168L143 161z"/>
<path style="fill:#fdfeff; stroke:none;" d="M97 164L86 198L105 194C104.597 185.188 101.606 171.542 97 164z"/>
<path style="fill:#bd9f7c; stroke:none;" d="M232 164L233 165L232 164M282 164L283 165L282 164M231 165L232 166L231 165M98 166L99 167L98 166M109 166L110 167L109 166M269 166L270 167L269 166M224 168L225 169L224 168M229 168L230 169L229 168M271 168L272 169L271 168M77 169L78 170L77 169M110 169L111 170L110 169M170 169L170 173L171 173L170 169M220 169L221 170L220 169M272 169L273 170L272 169M99 170L100 171L99 170M76 171L77 172L76 171M280 172L281 173L280 172M75 173L76 174L75 173M220 173L221 174L220 173M275 173L276 174L275 173M278 173L279 174L278 173M100 174L101 175L100 174M162 174L163 175L162 174M74 175L75 176L74 175M223 175L224 176L223 175M186 176L187 177L186 176M73 177L74 178L73 177M101 177L102 178L101 177M224 178L225 179L224 178M72 179L73 180L72 179M71 181L72 182L71 181M102 181L103 182L102 181M187 181L188 182L187 181M169 184L170 185L169 184M222 184L223 185L222 184M103 185L104 186L103 185M168 185L169 186L168 185M144 186L144 190L145 190L144 186M68 188L69 189L68 188M104 188L105 189L104 188M178 188L178 189L181 190L178 188M312 188L313 189L312 188z"/>
<path style="fill:#139eef; stroke:none;" d="M324 202L324 198C319.818 198.667 315.937 202.715 321.149 205.821C329.196 210.617 337.176 202.05 333.217 194.105C326.954 181.537 301.815 188.01 300.193 201C298.6 213.757 323.367 223.389 315.397 234.941C309.445 243.568 303.499 234.758 297.719 232.083C294.921 230.788 292.147 232.953 292.89 236.005C296.871 252.348 327.436 245.475 331.751 232.999C334.753 224.319 331.194 217.361 323.999 212.348C320.166 209.677 311.998 205.925 313.801 200.015C316.45 191.33 329.916 195.554 324 202z"/>
<path style="fill:#bd9f7c; stroke:none;" d="M325 188L326 189L325 188z"/>
<path style="fill:#fdfeff; stroke:none;" d="M157 229C172.313 228.674 196.645 207.075 181.348 191.336C178.037 187.93 161.645 195.059 160.314 199.228C157.332 208.57 159.281 219.42 157 229z"/>
<path style="fill:#bd9f7c; stroke:none;" d="M221 189L221 192L222 192L221 189M328 189L329 190L328 189M144 191L145 192L144 191M305 191L306 192L305 191M66 192L67 193L66 192M105.333 192.667L105.667 193.333L105.333 192.667M182 192L183 193L182 192M304 192L305 193L304 192M332 192L333 193L332 192M87 193L88 194L87 193M170 193L171 194L170 193M214.667 193.333L215.333 193.667L214.667 193.333M303 193L304 194L303 193M65 194L66 195L65 194M101.667 194.333L102.333 194.667L101.667 194.333M168 194L169 195L168 194M183 194L184 195L183 194M302 194L303 195L302 194M318 194L319 195L318 194M97 195L98 196L97 195M213 195L214 196L213 195M64 196L65 197L64 196M86 196L87 197L86 196M93 196L94 197L93 196z"/>
<path style="fill:#139eef; stroke:none;" d="M160 223C168.151 222.352 176.127 204.798 180 198C168.49 193.93 161.601 213.7 160 223z"/>
<path style="fill:#bd9f7c; stroke:none;" d="M88 197L89 198L88 197M184.333 197.667L184.667 198.333L184.333 197.667M321.667 197.333L322.333 197.667L321.667 197.333M63 198L64 199L63 198M171 198L172 199L171 198M218 198L219 199L218 198M300 198L301 199L300 198M319 198L320 199L319 198M281 199L282 200L281 199M62 200L63 201L62 200z"/>
<path style="fill:#fdfeff; stroke:none;" d="M82 211L110 209L108 201C100.896 203.001 84.9756 203.524 82 211z"/>
<path style="fill:#bd9f7c; stroke:none;" d="M108 202L109 203L108 202M221 202L221 205L222 205L221 202M273 202L274 203L273 202M98 203L99 204L98 203z"/>
<path style="fill:#fdfeff; stroke:none;" d="M72 204C69.1147 209.07 59.6168 225.581 65 230L72 204z"/>
<path style="fill:#bd9f7c; stroke:none;" d="M94 204L95 205L94 204M72 205L73 206L72 205M109 205L110 206L109 205M319 205L320 206L319 205M86 206L87 207L86 206M272 206L273 207L272 206M321 206L322 207L321 206M330 206L331 207L330 206M59 207L60 208L59 207M122 207L123 208L122 207M184 207L185 208L184 207z"/>
<path style="fill:#fdfeff; stroke:none;" d="M192 207L192 214C195.868 211.84 195.868 209.16 192 207z"/>
<path style="fill:#bd9f7c; stroke:none;" d="M194 207L195 208L194 207M110 208L111 209L110 208M145 208L146 209L145 208M165 208L166 209L165 208M172 208L173 209L172 208M195 208L196 209L195 208M271 208L272 209L271 208M108.667 209.333L109.333 209.667L108.667 209.333M301 209L302 210L301 209M70 210L71 211L70 210M92.6667 210.333L93.3333 210.667L92.6667 210.333M145 210L145 215L146 215L145 210M164 210L165 211L164 210M57 211L58 212L57 211M68 211L69 212L68 211M223 211L224 212L223 211M69 212L70 213L69 212M195 212L196 213L195 212M246 212L247 213L246 212M267 212L268 213L267 212M56 213L57 214L56 213M182 213L183 214L182 213M194 213L195 214L194 213M304 213L305 214L304 213M55 215L56 216L55 215M68 215L69 216L68 215M181 215L182 216L181 215M224 215L225 216L224 215M253.667 215.333L254.333 215.667L253.667 215.333M260.667 215.333L261.333 215.667L260.667 215.333M66 216L67 217L66 216M145 216L146 217L145 216M158.333 216.667L158.667 217.333L158.333 216.667z"/>
<path style="fill:#139eef; stroke:none;" d="M296.228 217.028C288.669 221.637 296.679 231.779 303.891 227.817C312.566 223.052 303.734 212.452 296.228 217.028z"/>
<path style="fill:#bd9f7c; stroke:none;" d="M54 217L55 218L54 217M161 217L162 218L161 217M67 218L68 219L67 218M89 218L89 219L97 219L89 218M102 218L103 219L102 218M188 218L189 219L188 218M219 218L220 219L219 218M53 219L54 220L53 219z"/>
<path style="fill:#fdfeff; stroke:none;" d="M186.742 220.086C183.993 222.033 186.358 227.488 189.697 225.824C193.398 223.979 190.058 217.739 186.742 220.086z"/>
<path style="fill:#bd9f7c; stroke:none;" d="M190 219L191 220L190 219M293 219L294 220L293 219M114 220L115 221L114 220M185 220L186 221L185 220M191 220L192 221L191 220M227 220L228 221L227 220M220 221L221 222L220 221M66 222L67 223L66 222M159 222L160 223L159 222M221 222L221 223L224 223L221 222M332 222L333 223L332 222M115 223L116 224L115 223M315 224L316 225L315 224M77 225L78 226L77 225M170 225L171 226L170 225M185 225L186 226L185 225M293 225L294 226L293 225M65.3333 226.667L65.6667 227.333L65.3333 226.667M316 226L317 227L316 226M116 227L117 228L116 227M157 227L158 228L157 227M166 227L167 228L166 227M177.667 227.333L178.333 227.667L177.667 227.333M49 228L50 229L49 228z"/>
<path style="fill:#fdfeff; stroke:none;" d="M179 234C182.15 225.763 171.895 229.997 179 234z"/>
<path style="fill:#bd9f7c; stroke:none;" d="M273 228L274 229L273 228M297 228L298 229L297 228M158 229L159 230L158 229M180 229L181 230L180 229M234 229L235 230L234 229M117 230L118 231L117 230M272 230L273 231L272 230M295.667 230.333L296.333 230.667L295.667 230.333M332 230L333 231L332 230M180 231L181 232L180 231M233 231L234 232L233 231M52 232L53 233L52 232M246 232L247 233L246 232M118 233L119 234L118 233M146 233L146 237L147 237L146 233M176 233L177 234L176 233M179 233L180 234L179 233M55 234L56 235L55 234M239 234L240 235L239 234M266 234L267 235L266 234M291 234L292 235L291 234M316 234L317 235L316 234M235 235L236 236L235 235M247 235L248 236L247 235M58 236L59 237L58 236M119 236L120 237L119 236M127 236L128 237L127 236M267 236L268 237L267 236M273 236L274 237L273 236M184 237L185 238L184 237M329 237L330 238L329 237M153 238L154 239L153 238M246.333 238.667L246.667 239.333L246.333 238.667M312 238L313 239L312 238M72 239L73 240L72 239M161.667 239.333L162.333 239.667L161.667 239.333M174 239L175 240L174 239M249 240L250 241L249 240M326 240L327 241L326 240M297 241L298 242L297 241M71 242L72 243L71 242M323 242L324 243L323 242M68 243L68 244L71 244L68 243M321 243L322 244L321 243M318 244L319 245L318 244M48 266L48 268L78 269L139 269L337 269L337 265L139 265L78 265L48 266z"/>
<path style="fill:#139eef; stroke:none;" d="M240 327C243.39 329.383 247.415 329.852 250.726 332.012C254.178 334.265 255.316 338.719 259.015 340.991C267.887 346.439 278.262 340.589 280 331L289 331C290.801 347.168 315.241 346.253 315.953 330C316.707 312.791 292.078 310.017 289 327L280 327C278.04 317.286 266.582 311.689 258.044 317.703C254.947 319.885 253.045 326.209 248.946 326.404C244.684 326.606 241.985 322.056 240 319C273.204 317.479 258.876 266.891 231.004 281C219.671 286.737 217.028 302.09 224.638 311.907C227.468 315.558 233.612 316.896 235.397 321.133C239.069 329.853 234.289 341.768 236.533 351C238.717 359.983 245.842 359.55 251.505 364.588C254.436 367.195 255.529 371.034 259.015 373.258C272.098 381.601 286.913 363.528 276.721 352.109C271.597 346.367 261.915 346.12 256.34 351.394C254.287 353.336 252.961 357.514 249.871 358.002C236.988 360.04 240 333.699 240 327M87 330C90.3896 332.383 94.4145 332.852 97.7261 335.012C101.178 337.265 102.316 341.719 106.015 343.991C114.887 349.439 125.262 343.589 127 334L136 334C137.801 350.168 162.241 349.253 162.953 333C163.706 315.791 139.078 313.017 136 330L127 330C125.04 320.286 113.582 314.689 105.044 320.703C101.947 322.885 100.045 329.209 95.946 329.404C91.6835 329.606 88.9846 325.056 87 322C120.204 320.479 105.876 269.891 78.0039 284C66.6709 289.737 64.0278 305.09 71.6381 314.907C74.4684 318.558 80.6125 319.896 82.3966 324.133C86.0694 332.853 81.2891 344.768 83.5332 354C85.7166 362.983 92.8423 362.55 98.5054 367.588C101.436 370.195 102.529 374.034 106.015 376.258C119.098 384.601 133.913 366.528 123.721 355.109C118.597 349.367 108.915 349.12 103.34 354.394C101.287 356.336 99.9607 360.514 96.8711 361.002C83.9877 363.04 87 336.699 87 330z"/>
<path style="fill:#bd9f7c; stroke:none;" d="M251 282L252 283L251 282z"/>
<path style="fill:#fdfeff; stroke:none;" d="M236 283.533C216.144 288.329 224.159 319.258 244 314.467C264.121 309.608 256.033 278.694 236 283.533z"/>
<path style="fill:#bd9f7c; stroke:none;" d="M244 283L245 284L244 283M98 285L99 286L98 285z"/>
<path style="fill:#fdfeff; stroke:none;" d="M83 286.533C63.1442 291.329 71.1593 322.258 91 317.467C111.121 312.608 103.033 281.694 83 286.533z"/>
<path style="fill:#bd9f7c; stroke:none;" d="M91 286L92 287L91 286M224 286L225 287L224 286M256 287L257 288L256 287M236 288L237 289L236 288M71 289L72 290L71 289M222 289L223 290L222 289z"/>
<path style="fill:#139eef; stroke:none;" d="M234.318 290.046C227.396 294.314 230.819 313.488 242.999 306.031C245.503 304.498 249.364 302.406 249.364 298.999C249.364 294.108 238.676 287.359 234.318 290.046z"/>
<path style="fill:#bd9f7c; stroke:none;" d="M103 290L104 291L103 290M226 290L227 291L226 290M83 291L84 292L83 291M221 291L222 292L221 291M69 292L70 293L69 292z"/>
<path style="fill:#139eef; stroke:none;" d="M81.3179 293.046C74.396 297.314 77.8189 316.488 89.9992 309.031C92.5032 307.498 96.3642 305.406 96.3642 301.999C96.3642 297.108 85.6763 290.359 81.3179 293.046z"/>
<path style="fill:#bd9f7c; stroke:none;" d="M73 293L74 294L73 293z"/>
<path style="fill:#fdfeff; stroke:none;" d="M236 293L236 305L246 298L236 293z"/>
<path style="fill:#bd9f7c; stroke:none;" d="M68 294L69 295L68 294M255 294L256 295L255 294M224 295L225 296L224 295z"/>
<path style="fill:#fdfeff; stroke:none;" d="M83 296L83 308L93 301L83 296z"/>
<path style="fill:#bd9f7c; stroke:none;" d="M242 296L243 297L242 296M249 296L250 297L249 296M102 297L103 298L102 297M71 298L72 299L71 298M89 299L90 300L89 299M96 299L97 300L96 299M249 301L250 302L249 301M220 302L221 303L220 302M240 302L241 303L240 302M96 304L97 305L96 304M67 305L68 306L67 305M87 305L88 306L87 305M244 314L245 315L244 314M251 315L252 316L251 315M269 315L270 316L269 315M272 316L273 317L272 316M308 316L309 317L308 316M91 317L92 318L91 317M98 318L99 319L98 318M116 318L117 319L116 318M311 318L312 319L311 318M119 319L120 320L119 319M155 319L156 320L155 319M263 319L264 320L263 319z"/>
<path style="fill:#fdfeff; stroke:none;" d="M264.001 319.588C251.249 322.888 256.407 341.882 268.996 338.562C280.817 335.446 276.087 316.461 264.001 319.588M300.004 319.588C287.697 322.796 292.722 341.794 304.996 338.562C316.816 335.451 312.084 316.439 300.004 319.588z"/>
<path style="fill:#bd9f7c; stroke:none;" d="M312 319L313 320L312 319M158 321L159 322L158 321M110 322L111 323L110 322z"/>
<path style="fill:#fdfeff; stroke:none;" d="M111.001 322.588C98.2488 325.888 103.407 344.882 115.996 341.562C127.817 338.446 123.087 319.461 111.001 322.588M147.004 322.588C134.697 325.796 139.722 344.794 151.996 341.562C163.816 338.451 159.084 319.439 147.004 322.588z"/>
<path style="fill:#bd9f7c; stroke:none;" d="M159 322L160 323L159 322M289 323L290 324L289 323z"/>
<path style="fill:#139eef; stroke:none;" d="M259 328C261.705 337.325 272.118 331.913 271 324L259 328z"/>
<path style="fill:#bd9f7c; stroke:none;" d="M293 324L294 325L293 324z"/>
<path style="fill:#139eef; stroke:none;" d="M295 329C299.907 335.417 308.153 332.16 307 324L295 329z"/>
<path style="fill:#bd9f7c; stroke:none;" d="M136 326L137 327L136 326M246 326L247 327L246 326M256 326L257 327L256 326z"/>
<path style="fill:#139eef; stroke:none;" d="M106 331C108.705 340.325 119.118 334.913 118 327L106 331z"/>
<path style="fill:#bd9f7c; stroke:none;" d="M140 327L141 328L140 327z"/>
<path style="fill:#139eef; stroke:none;" d="M142 332C146.907 338.417 155.153 335.16 154 327L142 332z"/>
<path style="fill:#bd9f7c; stroke:none;" d="M292 327L293 328L292 327M297 327L298 328L297 327M93 329L94 330L93 329M103 329L104 330L103 329M139 330L140 331L139 330M144 330L145 331L144 330M292 330L293 331L292 330M296 331L297 332L296 331M297 332L298 333L297 332M139 333L140 334L139 333M298 333L299 334L298 333M143 334L144 335L143 334M144 335L145 336L144 335M258 335L259 336L258 335M145 336L146 337L145 336M105 338L106 339L105 338M274 340L275 341L274 340M310 340L311 341L310 340M259 341L260 342L259 341M306 342L307 343L306 342M121 343L122 344L121 343M157 343L158 344L157 343M106 344L107 345L106 344M153 345L154 346L153 345M264 347L265 348L264 347M267 347L268 348L267 347M284 362L289 363C290.411 375.671 308.418 379.869 314.543 367.985C319.644 358.087 311.257 345.499 300 347.724C292.83 349.141 288.426 356.788 284 362M111 350L112 351L111 350M114 350L115 351L114 350M131 365L136 366C137.411 378.671 155.418 382.869 161.543 370.985C166.644 361.087 158.257 348.499 147 350.724C139.83 352.141 135.426 359.788 131 365M264 351L265 352L264 351z"/>
<path style="fill:#fdfeff; stroke:none;" d="M265 351.708C251.981 353.413 254.962 372.973 267.999 370.768C280.058 368.728 277.228 350.105 265 351.708z"/>
<path style="fill:#bd9f7c; stroke:none;" d="M267 351L268 352L267 351z"/>
<path style="fill:#fdfeff; stroke:none;" d="M301.001 351.627C288.349 353.67 291.092 372.643 303.999 370.847C316.068 369.168 313.283 349.643 301.001 351.627z"/>
<path style="fill:#bd9f7c; stroke:none;" d="M111 354L112 355L111 354z"/>
<path style="fill:#fdfeff; stroke:none;" d="M112 354.708C98.9814 356.413 101.962 375.973 114.999 373.768C127.058 371.728 124.228 353.105 112 354.708z"/>
<path style="fill:#bd9f7c; stroke:none;" d="M114 354L115 355L114 354z"/>
<path style="fill:#fdfeff; stroke:none;" d="M148.001 354.627C135.349 356.67 138.092 375.643 150.999 373.847C163.068 372.168 160.283 352.642 148.001 354.627z"/>
<path style="fill:#bd9f7c; stroke:none;" d="M279 356L280 357L279 356M126 359L127 360L126 359M260 360L260 362L264 363L263 359L260 360M268 360L268 362L272 363L271 359L268 360M107 363L107 365L111 366L110 362L107 363M115 363L115 365L119 366L118 362L115 363M252 364L253 365L252 364M275 365L276 366L275 365M99 367L100 368L99 367M253 367L254 368L253 367M122 368L123 369L122 368M100 370L101 371L100 370M270 370L271 371L270 370M117 373L118 374L117 373z"/>
</svg>
